PathFileType	4	(X/Y/Z)	C:\Users\Basilio\Documents\Thesis Gigler\squatting_fais\c3dfiles\075\SLS_back_pre5\markers_experimental.trc
DataRate	CameraRate	NumFrames	NumMarkers	Units	OrigDataRate	OrigDataStartFrame	OrigNumFrames
200.000000	200.000000	4	61	mm	200.000000	484	1291
Frame#	Time	FHD			LBHD			C7			T10			CLAV			LSHO			LUUPA			LMUPA			LDUPA			LLEP			LMEP			LRAD			LUL			LRFIN			RSHO			RUPA1			RMUPA			RDUPA			RLEP			RMEP			RRAD			RUL			RUFIN			LASI			RASI			USACR			LSACR			RSACR			LTHI1			LTHI2			LTHI3			LTHI4			LLFC			LMFC			LTIB1			LTIB2			LTIB3			LTIB4			LLMAL			LMMAL			LHEE			LMT1			LMT2			LMT5			RTHI			RTHI2			RTHI3			RTHI4			RLFC			RMFC			RTIB1			RTIB2			RTIB3			RTIB4			RLMAL			RMMAL			RHEE			RMT1			RMT2			RMT5			RBHD			
		X1	Y1	Z1	X2	Y2	Z2	X3	Y3	Z3	X4	Y4	Z4	X5	Y5	Z5	X6	Y6	Z6	X7	Y7	Z7	X8	Y8	Z8	X9	Y9	Z9	X10	Y10	Z10	X11	Y11	Z11	X12	Y12	Z12	X13	Y13	Z13	X14	Y14	Z14	X15	Y15	Z15	X16	Y16	Z16	X17	Y17	Z17	X18	Y18	Z18	X19	Y19	Z19	X20	Y20	Z20	X21	Y21	Z21	X22	Y22	Z22	X23	Y23	Z23	X24	Y24	Z24	X25	Y25	Z25	X26	Y26	Z26	X27	Y27	Z27	X28	Y28	Z28	X29	Y29	Z29	X30	Y30	Z30	X31	Y31	Z31	X32	Y32	Z32	X33	Y33	Z33	X34	Y34	Z34	X35	Y35	Z35	X36	Y36	Z36	X37	Y37	Z37	X38	Y38	Z38	X39	Y39	Z39	X40	Y40	Z40	X41	Y41	Z41	X42	Y42	Z42	X43	Y43	Z43	X44	Y44	Z44	X45	Y45	Z45	X46	Y46	Z46	X47	Y47	Z47	X48	Y48	Z48	X49	Y49	Z49	X50	Y50	Z50	X51	Y51	Z51	X52	Y52	Z52	X53	Y53	Z53	X54	Y54	Z54	X55	Y55	Z55	X56	Y56	Z56	X57	Y57	Z57	X58	Y58	Z58	X59	Y59	Z59	X60	Y60	Z60	X61	Y61	Z61	

485	2.42	-147.3624572753907	1471.865844726563	-741.5892333984376	-302.5211791992188	1371.052734375	-817.3022460937502	-355.8669128417969	1275.522216796875	-762.8021240234376	-484.1241149902345	985.0205078125002	-784.6549072265627	-227.0385437011719	1183.653198242188	-758.6895751953126	-242.4099884033204	1253.526245117188	-886.5578613281252	-103.4338607788086	1171.28662109375	-990.486022949219	-73.75428771972658	1188.6787109375	-955.3618774414065	-35.3775978088379	1158.635375976563	-991.2642211914065	46.34967041015626	1140.538330078125	-977.6088867187502	20.22380828857422	1067.475341796875	-938.0264282226565	nan	nan	nan	268.2895507812501	1145.7099609375	-842.0919189453127	267.5528259277344	1166.300659179688	-735.7420654296876	-267.1170654296876	1226.1640625	-623.2054443359376	-147.8984832763672	1140.833984375	-505.3939819335939	-110.42626953125	1157.881958007813	-531.6387329101564	-80.4982376098633	1124.439086914063	-490.0661621093751	-9.31811046600342	1114.483276367188	-489.679656982422	-6.769012928009035	1041.248046875	-519.3074340820314	196.9205322265626	1146.452758789063	-673.4511108398439	223.9301147460938	1145.82568359375	-601.4505615234376	273.7728881835938	1181.562866210938	-702.0982055664064	-390.8042602539064	792.7916259765627	-931.403503417969	-385.353973388672	777.097839355469	-680.8176879882814	-522.4934082031251	885.8062133789065	-798.9976196289065	-538.3435058593751	860.7979736328127	-829.270202636719	-539.6183471679689	856.2901611328127	-771.5483398437502	-372.5161437988282	610.8151245117189	-1033.681030273438	-310.1896667480469	554.2949829101564	-1041.963500976563	-274.8862915039063	567.8914794921876	-1009.39404296875	-314.0742797851563	494.5088500976564	-1055.797241210938	-298.9330139160157	410.5249023437501	-1059.722045898438	-290.9105834960938	362.0256652832032	-930.3288574218752	-367.1766662597657	301.2297668457032	-1028.40283203125	-424.4964294433595	351.1695251464844	-1072.764770507813	-416.8770446777345	308.5285949707032	-1059.610229492188	-494.4154052734376	287.9015502929688	-1031.046020507813	-647.7860717773439	324.7421264648438	-1051.36376953125	-627.4950561523439	301.3657226562501	-968.3792724609377	-665.8645019531251	384.1593627929689	-1010.47900390625	-715.7020874023439	190.2929077148438	-954.9473876953127	-724.0336914062501	179.3638000488282	-1002.048706054688	-748.1646118164064	216.330795288086	-1050.257202148438	-394.1970214843751	624.2009277343751	-621.3279418945314	-329.1123962402344	613.3758544921876	-623.7994995117189	-310.3890991210938	640.5375366210939	-632.4743041992189	-290.9720153808594	538.8660278320314	-629.4963989257814	-209.6028137207032	426.1669006347657	-670.0263061523439	-181.0765686035157	445.5846252441407	-789.7590942382815	-198.353500366211	298.8520202636719	-762.3681030273439	-273.9475708007813	237.6958923339844	-712.7830810546876	-245.829330444336	224.9179992675782	-750.0047607421876	-277.0474853515626	199.9668426513672	-792.1420898437502	-389.4821777343751	110.771957397461	-762.8544921875001	-354.6865539550782	141.7149047851563	-842.9940185546877	-447.923309326172	98.15815734863284	-824.1277465820315	-247.2388916015626	56.02229309082033	-835.203063964844	-245.4861907958985	56.50265502929689	-792.4180297851565	-283.1212463378907	34.63644027709962	-740.9805908203126	-264.6213989257813	1401.001586914063	-661.8427124023439	
486	2.425	-146.8209075927735	1470.561401367188	-741.6560668945314	-301.9815979003907	1369.685180664063	-817.288757324219	-355.3684692382813	1274.348388671875	-762.8488769531251	-484.1482238769532	984.1270141601565	-784.5601196289065	-226.7158508300782	1182.408935546875	-758.7821655273439	-241.9596252441407	1252.506103515625	-886.7521972656252	-103.3071060180664	1170.20703125	-990.3669433593752	-73.15560150146486	1187.288452148438	-955.605895996094	-35.20873260498048	1157.488159179688	-991.420837402344	46.64242172241212	1139.240356445313	-977.6035156250002	20.55854797363282	1066.36083984375	-938.1425781250002	nan	nan	nan	268.7796936035157	1144.551879882813	-842.2191162109377	267.9812316894532	1165.263427734375	-735.8481445312501	-266.6604309082032	1224.966430664063	-623.2752075195314	-147.5577087402344	1139.637939453125	-505.5298767089845	-110.0385513305664	1156.840698242188	-531.9771728515626	-80.07179260253908	1123.350341796875	-490.2283630371095	-8.941246986389162	1113.328857421875	-489.8372192382814	-6.189124107360842	1040.08056640625	-519.4649047851564	197.1603698730469	1145.262084960938	-673.5533447265626	224.3160858154297	1144.558715820313	-601.4624023437501	274.1348266601563	1180.23681640625	-702.2337036132814	-391.1942443847657	791.9058227539065	-931.3606567382815	-385.7679443359376	775.7579345703127	-681.0421142578126	-522.6055297851564	884.684020996094	-798.903259277344	-538.5261230468751	859.7819824218752	-829.1512451171877	-539.8643188476564	855.269226074219	-771.4055175781252	-373.0029296875001	609.7713623046876	-1033.748779296875	-310.6444091796876	553.4186401367189	-1041.813354492188	-275.2860412597657	566.9445190429689	-1009.489929199219	-313.8936462402344	493.5859680175782	-1055.805297851563	-299.1810302734376	409.6454467773439	-1059.931884765625	-291.4443969726563	360.8253479003907	-930.5764160156252	-368.0766601562501	300.5374450683594	-1029.106323242188	-425.120086669922	350.2666931152344	-1073.112670898438	-417.394989013672	307.6267089843751	-1059.691650390625	-494.8787536621095	287.0375976562501	-1031.21533203125	-648.2938232421876	324.1699218750001	-1051.593383789063	-628.0474243164064	300.6064758300782	-968.533386230469	-666.1491088867189	383.3865356445313	-1010.513244628906	-716.6481933593751	189.7274780273438	-955.084411621094	-726.4413452148439	179.1099700927735	-1002.277893066406	-748.7761840820314	215.7899780273438	-1050.341064453125	-394.2437438964845	623.5620727539064	-621.4659423828126	-329.0802917480469	612.7752075195314	-623.8139038085939	-310.3153381347657	639.7559204101564	-632.8163452148439	-290.8069458007813	538.3837280273439	-629.5158691406251	-209.2726593017579	425.8814086914064	-670.0778808593751	-180.8096313476563	445.3323059082032	-789.836608886719	-198.0690460205079	298.7196350097657	-762.4804077148439	-273.7477416992188	237.6090850830079	-712.8571777343751	-245.8333892822266	224.8742218017579	-750.1215820312501	-276.8354797363282	199.8194427490235	-792.182800292969	-389.457489013672	110.7493896484375	-762.8342895507814	-354.5357971191407	141.6990203857422	-842.980895996094	-447.9803771972657	98.17007446289065	-824.1145019531252	-247.2334747314454	56.02602005004884	-835.1782836914065	-245.8730163574219	56.41158294677736	-792.5279541015627	-283.1319580078126	34.6502799987793	-740.9686889648439	-263.6427001953126	1399.525268554688	-662.5866088867189	
487	2.43	-146.9377899169922	1469.611572265625	-742.2077636718751	-301.3013000488282	1368.704467773438	-817.3860473632815	-354.8882446289063	1273.270141601563	-762.9399414062501	-484.0982971191407	983.248474121094	-784.5757446289065	-226.3901062011719	1180.96484375	-758.8540039062501	-241.5188751220704	1251.322631835938	-886.7095336914065	-102.7931594848633	1168.95703125	-990.6571044921877	-73.11302947998048	1186.267944335938	-955.3748779296877	-34.54203796386719	1156.203125	-991.3941040039065	46.86218643188477	1138.073364257813	-977.7326660156252	20.96078300476075	1065.029541015625	-937.9675292968752	nan	nan	nan	269.1803588867188	1143.573852539063	-842.4758911132815	268.2257690429688	1163.949951171875	-735.9772338867189	-266.1118469238282	1223.852661132813	-623.2500000000001	-147.1123809814453	1138.448364257813	-505.5169982910157	-109.5608901977539	1155.661010742188	-531.9909057617189	-79.64071655273439	1122.1572265625	-490.2891235351564	-8.548026084899904	1112.078125	-489.8379821777345	-5.818758964538575	1038.835693359375	-519.6082153320314	197.7611999511719	1144.234130859375	-673.8782958984376	224.7798919677735	1143.439086914063	-601.5936889648439	274.5619812011719	1179.11767578125	-702.3958129882814	-391.5342407226564	790.854675292969	-931.2969970703127	-385.6870422363282	775.0874633789065	-680.8389282226564	-522.6072387695314	884.1853027343752	-799.0635986328127	-538.8228759765626	858.9268188476565	-829.081481933594	-540.0521850585939	854.4300537109377	-771.276550292969	-373.3402709960938	609.0229492187501	-1033.803588867188	-311.2025451660157	552.3614501953126	-1042.062133789063	-275.5249938964844	565.8688354492189	-1009.6201171875	-314.3381042480469	492.5047912597657	-1055.788208007813	-299.5360107421876	408.5854492187501	-1059.775024414063	-291.9386596679688	359.8286743164063	-930.7100219726565	-368.5846557617188	299.5675964355469	-1029.272216796875	-425.6695861816407	349.5219421386719	-1073.270385742188	-417.9956665039064	306.7100830078126	-1059.939453125	-495.0454711914064	286.2101440429688	-1030.16845703125	-648.9337768554689	323.4112548828126	-1051.613403320313	-628.6659545898439	299.8867492675782	-968.6088867187502	-666.5805664062501	382.6279602050782	-1010.562683105469	-717.3318481445314	189.0896911621094	-955.1836547851565	-725.3095092773439	178.0198822021485	-1001.99462890625	-749.4112548828126	215.1368865966797	-1050.49072265625	-394.304168701172	622.7837524414064	-621.4009399414064	-329.1514282226563	612.2277832031251	-624.0698242187501	-310.5148925781251	639.5300903320314	-632.6586303710939	-290.6841430664063	537.9080200195314	-629.4076538085939	-208.8855895996094	425.6930236816407	-670.1860351562501	-180.3226470947266	444.9710998535157	-789.8590087890627	-197.7611541748047	298.5091247558594	-762.6138305664064	-273.4949645996094	237.5830383300782	-712.8690185546876	-245.5693511962891	224.6600952148438	-750.2487792968751	-276.8475036621094	199.7155303955079	-792.2509765625002	-389.3880920410157	110.7737121582032	-762.8374023437501	-354.5342407226563	141.673324584961	-843.018737792969	-447.9317932128907	98.1539001464844	-824.1214599609377	-247.2462005615235	55.94924545288087	-835.177917480469	-245.5094299316407	56.49340438842775	-792.4440917968752	-283.1301574707032	34.65576553344727	-741.0126953125001	-263.1907348632813	1398.196044921875	-662.5534057617189	
488	2.435	-145.7825622558594	1467.930541992188	-741.7411499023439	-300.8433227539063	1367.459594726563	-817.3378906250002	-354.5454711914063	1272.135620117188	-762.9456787109376	-484.1605529785157	982.285095214844	-784.548767089844	-226.0237579345704	1179.77587890625	-758.9484252929689	-241.3196716308594	1249.926147460938	-886.748718261719	-102.7874603271485	1167.829956054688	-990.5964965820315	-72.50640106201173	1184.997924804688	-955.690612792969	-34.23379516601563	1155.071899414063	-991.467224121094	47.45185852050782	1136.914672851563	-977.7753906250002	21.13670158386231	1063.975341796875	-938.120300292969	nan	nan	nan	269.5780639648438	1142.421997070313	-842.7463378906252	268.5998535156251	1162.98779296875	-736.1281127929689	-265.7478637695313	1222.503051757813	-623.4358520507814	-146.6928100585938	1137.369018554688	-505.5858764648439	-109.1554107666016	1154.374145507813	-532.0671386718751	-79.2572479248047	1120.977905273438	-490.3604431152345	-8.129979133605959	1110.90869140625	-489.9992980957032	-5.395270347595216	1037.7412109375	-519.6483764648439	197.8713378906251	1142.855590820313	-673.6817626953126	225.0913238525391	1142.255615234375	-601.7102661132814	274.9817810058594	1178.052124023438	-702.4558715820314	-391.7253723144532	789.6196899414065	-931.4250488281252	-385.923309326172	774.2061767578127	-680.8627319335939	-522.9107666015626	883.2086181640627	-798.9899902343752	-539.1198730468751	857.965515136719	-828.9396972656252	-540.1378784179689	853.480895996094	-771.1928710937502	-373.7868957519532	607.9674682617189	-1033.931030273438	-311.1575012207032	551.2578125000001	-1041.98876953125	-275.9302062988282	564.7638549804689	-1009.715148925781	-314.7680969238282	491.570037841797	-1055.973388671875	-300.2093200683594	407.7513732910157	-1060.136352539063	-292.4464416503907	358.8157348632813	-930.8785400390627	-368.7426147460938	298.3686828613282	-1028.9267578125	-426.2269897460939	348.6558837890626	-1073.411499023438	-418.3682556152345	305.7304992675782	-1060.036254882813	-495.9469299316407	285.4195861816407	-1031.231079101563	-649.2998657226564	322.7117309570313	-1051.618041992188	-629.0969238281251	299.1074218750001	-968.738220214844	-667.0670166015626	381.9839172363282	-1010.702819824219	-717.7727050781251	188.4168548583985	-955.3494873046877	-726.6857910156251	177.5247344970703	-1002.358337402344	-750.1124267578126	214.5637969970704	-1050.629760742188	-394.3262939453126	622.0430908203126	-621.3089599609376	-329.0985717773438	611.8217773437501	-623.9089355468751	-310.5813903808594	639.1373291015626	-632.7562255859376	-290.5826416015626	537.5427246093751	-629.4319458007814	-208.578353881836	425.4494628906251	-670.2373657226564	-180.1871032714844	444.9310302734376	-789.9092407226565	-197.5480957031251	298.2451782226563	-762.6925659179689	-273.4087524414063	237.7233886718751	-712.7343139648439	-245.4594726562501	224.613998413086	-750.3820800781251	-276.8029174804688	199.666976928711	-792.3085937500002	-389.3862915039064	110.7478485107422	-762.8585815429689	-354.5532226562501	141.6802978515625	-843.0579833984377	-447.9760131835939	98.1803894042969	-824.114196777344	-247.2508850097657	55.95462799072267	-835.2108154296877	-245.7102661132813	56.61895751953126	-792.476745605469	-283.1495666503907	34.66400527954102	-741.0097656250001	-263.2298278808594	1397.192993164063	-661.7871704101564	
